<?xml version="1.0" standalone="no"?>
<!DOCTYPE svg PUBLIC "-//W3C//DTD SVG 20010904//EN"
 "http://www.w3.org/TR/2001/REC-SVG-20010904/DTD/svg10.dtd">
<svg version="1.0" xmlns="http://www.w3.org/2000/svg"
 width="260.000000pt" height="260.000000pt" viewBox="0 0 260.000000 260.000000"
 preserveAspectRatio="xMidYMid meet">
<metadata>
Created by potrace 1.11, written by Peter Selinger 2001-2013
</metadata>
<g transform="translate(0.000000,260.000000) scale(0.100000,-0.100000)"
fill="#000000" stroke="none">
<path d="M830 1295 l0 -915 330 0 330 0 0 349 0 350 -22 15 c-28 20 -58 20
-86 0 -22 -15 -22 -17 -22 -290 l0 -274 -195 0 -195 0 0 765 0 765 195 0 195
0 0 -269 0 -270 26 -20 c15 -12 32 -21 39 -21 7 0 24 9 39 21 l26 20 0 345 0
344 -330 0 -330 0 0 -915z"/>
<path d="M1663 2200 c-12 -5 -26 -18 -32 -29 -7 -13 -11 -153 -11 -410 l0
-391 -195 0 -195 0 0 265 c0 252 -1 266 -20 285 -27 27 -66 25 -95 -5 l-25
-24 0 -596 0 -596 25 -24 c29 -30 68 -32 95 -5 19 19 20 33 20 285 l0 265 195
0 195 0 0 -393 0 -394 23 -21 c30 -28 68 -28 95 1 l22 23 0 861 c0 805 -1 862
-17 881 -22 25 -51 33 -80 22z"/>
</g>
</svg>
