<?xml version="1.0" standalone="no"?>
<!DOCTYPE svg PUBLIC "-//W3C//DTD SVG 20010904//EN"
 "http://www.w3.org/TR/2001/REC-SVG-20010904/DTD/svg10.dtd">
<svg version="1.0" xmlns="http://www.w3.org/2000/svg"
 width="1920.000000pt" height="1920.000000pt" viewBox="0 0 1920.000000 1920.000000"
 preserveAspectRatio="xMidYMid meet">
<metadata>
Created by potrace 1.14, written by Peter Selinger 2001-2017
</metadata>
<g transform="translate(0.000000,1920.000000) scale(0.100000,-0.100000)"
fill="#000000" stroke="none">
<path d="M9415 15558 c-93 -33 -312 -109 -485 -168 -173 -60 -486 -168 -695
-240 -209 -73 -391 -135 -405 -140 -14 -4 -137 -47 -275 -95 -137 -48 -318
-110 -401 -138 -738 -253 -1164 -403 -1164 -409 0 -4 26 -40 59 -80 32 -40 68
-92 80 -116 27 -54 37 -130 22 -173 -6 -18 -9 -34 -6 -37 5 -5 71 17 565 188
369 127 473 164 805 278 559 193 851 294 926 320 75 26 78 29 136 107 234 313
607 495 1020 495 139 0 310 -26 423 -65 250 -85 479 -252 610 -445 23 -34 53
-66 68 -71 15 -6 164 -58 332 -116 168 -57 361 -124 430 -148 69 -24 256 -88
415 -143 917 -317 1058 -366 1114 -386 63 -23 73 -21 61 10 -31 80 3 186 95
299 36 44 65 82 65 85 0 3 -57 24 -128 48 -70 24 -183 63 -252 87 -144 50
-1028 355 -1650 570 -234 81 -477 165 -540 187 -63 22 -263 91 -445 153 -181
62 -388 134 -460 159 -71 25 -134 46 -140 45 -5 0 -86 -27 -180 -61z"/>
<path d="M9484 15220 c-173 -18 -353 -75 -492 -159 -100 -60 -120 -76 -209
-163 -155 -151 -254 -343 -299 -575 -22 -111 -24 -361 -5 -496 13 -92 16 -101
57 -151 43 -51 102 -166 86 -166 -5 0 -18 13 -29 29 -26 34 -109 91 -134 91
-25 0 -66 -54 -83 -109 -36 -121 -28 -254 21 -364 45 -100 165 -187 257 -187
17 0 29 -14 52 -62 57 -121 202 -288 331 -381 24 -17 41 -33 38 -35 -9 -9
-172 77 -233 123 -33 25 -74 61 -91 81 l-31 35 -2 -243 c-5 -430 1 -473 82
-613 21 -36 37 -65 35 -65 -3 0 -40 37 -83 81 l-79 82 -134 -17 c-148 -19
-491 -73 -514 -82 -21 -9 -20 -12 33 -100 69 -115 126 -186 243 -300 122 -117
213 -189 439 -344 159 -110 360 -258 360 -266 0 -2 -44 18 -97 44 -237 118
-455 193 -858 291 -277 68 -373 98 -455 141 -63 33 -59 36 25 14 74 -19 440
-33 434 -16 -9 24 -157 187 -267 293 -234 228 -421 342 -661 407 -86 23 -115
25 -271 25 -208 0 -338 -23 -578 -102 -222 -73 -542 -212 -542 -235 0 -61 367
-444 670 -698 54 -46 97 -84 95 -86 -4 -5 -127 71 -235 146 -192 132 -387 287
-569 451 -210 191 -369 274 -572 301 -217 29 -552 -60 -760 -201 -65 -44 -170
-143 -227 -214 l-33 -40 17 40 c9 22 27 66 40 97 40 96 72 220 85 329 14 126
6 368 -15 456 -19 76 -68 203 -78 203 -4 0 -15 -26 -24 -57 -16 -55 -90 -236
-121 -296 -28 -56 -24 -18 11 89 19 60 63 201 96 314 164 552 289 866 396 994
31 38 49 49 106 66 l69 21 92 -34 c151 -56 259 -74 342 -57 71 15 103 41 111
90 l6 40 20 -25 c49 -62 124 -71 207 -25 47 26 64 30 133 30 180 0 208 22 283
226 30 83 55 163 55 178 0 15 -9 43 -20 64 -26 48 -397 500 -431 525 -45 33
-101 31 -316 -7 -377 -67 -732 -167 -1011 -287 -143 -61 -143 -61 -323 -300
-265 -351 -531 -783 -736 -1194 -206 -411 -404 -964 -483 -1349 -48 -237 -63
-508 -36 -685 8 -52 9 -104 5 -134 -25 -156 84 -293 324 -408 164 -78 736
-262 1047 -337 155 -38 391 -84 397 -78 8 8 -181 219 -370 412 -104 107 -186
194 -182 194 12 0 214 -150 290 -215 38 -33 116 -105 173 -160 57 -55 130
-118 162 -140 232 -163 565 -216 985 -159 142 20 214 36 410 91 182 52 263 58
358 28 65 -20 130 -71 156 -124 10 -20 44 -121 75 -225 125 -418 252 -691 387
-831 l48 -50 30 -150 c83 -413 223 -732 413 -940 123 -135 240 -186 421 -188
59 0 102 -4 95 -8 -23 -12 -113 -28 -197 -35 -75 -6 -81 -9 -75 -26 25 -81 44
-217 44 -325 0 -105 -5 -145 -40 -300 -43 -197 -64 -326 -81 -513 -6 -69 -13
-127 -15 -128 -5 -7 -145 159 -319 382 -318 405 -674 948 -928 1416 -277 511
-548 1142 -728 1698 -32 100 -35 103 -59 97 -14 -3 -116 -8 -227 -12 -146 -4
-203 -9 -203 -17 0 -41 171 -533 295 -846 222 -564 567 -1248 860 -1705 130
-202 241 -370 323 -485 632 -889 1345 -1645 2338 -2476 139 -116 633 -503 691
-541 27 -18 16 -24 243 151 600 464 1054 860 1525 1331 1283 1282 2143 2652
2695 4293 49 147 90 273 90 280 0 9 -42 12 -157 12 -87 1 -189 5 -228 10 -38
5 -71 8 -72 6 -1 -1 -38 -105 -81 -231 -420 -1219 -1015 -2275 -1834 -3257
-61 -73 -94 -105 -98 -96 -4 7 -10 61 -14 120 -8 136 -46 369 -93 568 -34 146
-35 162 -29 270 5 94 21 199 47 310 3 11 -3 14 -19 12 -38 -6 -202 18 -235 33
-31 14 -31 15 28 9 75 -6 185 9 256 36 187 72 379 322 503 654 48 127 101 320
127 465 21 114 23 117 70 167 142 152 272 435 399 866 56 190 66 214 116 262
87 85 242 102 419 46 268 -84 511 -123 760 -124 196 0 296 14 440 61 168 54
247 107 431 283 113 110 352 304 424 345 20 12 -33 -48 -102 -116 -161 -156
-459 -489 -439 -489 25 0 325 63 454 96 204 51 344 93 627 188 375 127 475
174 580 276 88 85 105 124 106 250 1 58 7 157 14 220 43 392 -89 954 -395
1679 -156 370 -483 948 -733 1296 -94 131 -183 248 -251 333 -81 102 -80 101
-281 182 -216 86 -473 163 -720 215 -187 39 -400 75 -443 75 -56 0 -109 -34
-169 -109 -29 -36 -113 -139 -186 -229 -173 -211 -182 -225 -182 -277 0 -51
93 -310 124 -343 40 -45 75 -56 189 -59 96 -3 111 -6 146 -29 42 -27 104 -40
143 -31 13 4 37 20 54 36 37 38 44 38 44 1 0 -41 28 -66 96 -86 50 -14 69 -15
142 -5 46 7 128 28 181 48 104 39 131 42 204 22 146 -39 266 -303 516 -1134
49 -165 97 -319 105 -342 8 -24 13 -43 11 -43 -19 0 -135 265 -156 358 -7 29
-16 52 -19 52 -12 0 -56 -109 -74 -182 -22 -89 -35 -240 -29 -358 8 -193 44
-347 119 -508 19 -42 32 -77 30 -79 -2 -3 -10 6 -17 19 -18 34 -146 164 -209
212 -237 182 -640 275 -894 207 -165 -44 -299 -127 -508 -314 -200 -180 -401
-334 -608 -469 -191 -124 -204 -127 -67 -13 124 103 369 335 495 470 92 98
182 215 182 235 0 10 -222 110 -395 177 -431 168 -797 205 -1083 107 -233 -80
-467 -249 -710 -517 -164 -180 -159 -167 -65 -168 176 -1 246 3 334 21 51 11
95 17 97 15 7 -7 -91 -52 -173 -79 -44 -15 -206 -58 -360 -96 -380 -94 -591
-166 -818 -281 -54 -27 -96 -45 -92 -39 10 16 187 147 330 245 339 231 489
362 629 550 44 59 126 188 126 199 0 12 -311 65 -530 92 l-136 16 -88 -89
c-56 -56 -81 -75 -67 -53 40 63 88 174 100 228 7 32 11 174 11 364 l0 310 -69
-65 c-38 -36 -96 -81 -129 -100 -68 -40 -153 -79 -159 -73 -2 2 18 19 44 39
117 86 277 272 329 382 23 50 25 51 83 63 118 25 214 122 247 253 25 97 16
247 -18 321 -45 97 -86 97 -190 1 -26 -25 -48 -43 -48 -40 0 24 55 123 89 160
39 42 42 50 56 143 33 221 14 497 -49 680 -69 205 -222 407 -395 524 -227 153
-517 226 -787 200z m-3968 -646 c22 -11 83 -74 164 -168 165 -194 187 -224
119 -160 -303 284 -298 280 -428 271 -73 -6 -372 -45 -465 -62 -16 -3 -27 -3
-24 0 4 4 182 52 453 123 62 16 143 14 181 -4z m8538 -46 c133 -34 234 -64
225 -66 -9 -1 -97 9 -195 23 -239 34 -323 40 -366 26 -56 -18 -81 -40 -307
-255 -41 -39 -67 -61 -60 -50 37 57 295 348 323 365 52 32 118 25 380 -43z
m1895 -2004 c158 -239 255 -479 316 -780 42 -204 29 -193 -64 56 -105 280
-198 515 -279 702 -33 76 -55 135 -51 132 5 -3 40 -52 78 -110z m-12655 20
c-56 -123 -213 -517 -299 -749 -75 -206 -97 -255 -88 -198 53 340 131 572 276
825 50 87 137 211 143 205 2 -2 -12 -39 -32 -83z m3096 -2164 c198 -57 350
-189 453 -395 21 -42 87 -227 87 -244 0 -3 -23 35 -51 83 -171 299 -389 474
-702 563 l-82 23 110 -4 c71 -3 137 -12 185 -26z m6641 9 c-41 -11 -108 -33
-150 -49 -219 -85 -434 -282 -563 -517 -22 -41 -42 -72 -44 -70 -9 8 40 138
91 243 129 265 361 412 655 413 l85 0 -74 -20z m-5291 -1645 c230 -177 438
-271 595 -267 179 3 558 79 719 143 137 54 260 138 317 214 16 22 29 37 29 33
0 -21 -47 -119 -84 -176 -149 -227 -430 -356 -875 -401 -178 -18 -194 -16
-306 39 -319 154 -628 445 -796 747 -21 38 -38 72 -39 76 0 4 75 -68 168 -160
92 -92 214 -203 272 -248z m4129 354 c-153 -304 -501 -631 -832 -782 l-87 -40
-153 12 c-500 39 -823 199 -956 475 -23 46 -41 87 -41 91 0 4 30 -24 68 -61
76 -76 159 -128 277 -174 149 -58 411 -114 660 -140 l110 -11 110 36 c244 79
515 275 778 560 49 53 91 96 93 96 2 0 -10 -28 -27 -62z m-4405 -754 c84 -85
227 -181 325 -219 39 -16 71 -30 71 -33 0 -10 -121 11 -190 35 -99 33 -177 81
-239 149 -53 58 -127 194 -137 254 -6 32 -2 29 46 -40 30 -41 85 -107 124
-146z m4431 154 c-67 -205 -213 -337 -431 -389 -114 -27 -147 -22 -69 10 93
39 180 91 265 158 74 60 180 179 223 251 27 46 32 33 12 -30z m-2187 -332
c149 -40 301 -141 518 -345 85 -80 87 -83 39 -56 -251 144 -365 191 -530 220
-109 19 -168 19 -270 1 -153 -28 -311 -90 -479 -190 -43 -26 -81 -45 -83 -43
-6 7 213 201 296 262 87 65 210 130 282 149 70 19 160 19 227 2z m-326 -784
c63 -42 96 -119 105 -251 l6 -84 -24 7 c-69 21 -101 26 -179 26 -138 0 -249
-38 -393 -135 -131 -88 -162 -100 -254 -99 -67 1 -91 6 -137 28 -121 59 -202
179 -251 372 -25 103 -21 111 28 57 65 -73 117 -120 172 -155 47 -31 55 -33
140 -33 66 0 110 6 165 23 98 31 289 123 415 200 110 67 156 77 207 44z m644
-45 c132 -80 277 -152 385 -189 79 -27 109 -32 189 -32 l95 -1 66 47 c37 26
96 79 133 119 36 39 66 65 66 58 0 -43 -46 -195 -80 -265 -29 -61 -54 -95 -99
-136 -67 -63 -122 -86 -221 -95 -79 -7 -108 4 -237 88 -118 76 -193 113 -270
133 -77 20 -233 20 -288 1 -22 -8 -43 -15 -47 -15 -12 0 -10 112 3 172 14 68
52 134 92 159 52 32 106 21 213 -44z m801 -628 c53 -153 26 -302 -73 -400 -49
-48 -64 -48 -35 2 55 95 89 287 73 417 -10 87 0 81 35 -19z m-2421 -51 c0
-149 17 -235 65 -330 16 -32 26 -58 22 -58 -5 0 -24 15 -44 33 -83 77 -122
196 -101 315 8 51 48 172 56 172 0 0 1 -60 2 -132z m273 -506 c122 -92 299
-124 459 -84 45 12 117 36 161 55 l79 35 40 -24 c34 -20 102 -103 102 -124 0
-4 -28 -7 -62 -7 -50 0 -82 -8 -153 -38 -192 -80 -221 -88 -325 -83 -107 4
-177 30 -243 87 -48 42 -139 221 -112 221 2 0 27 -17 54 -38z m1896 16 c-16
-56 -69 -149 -106 -188 -22 -23 -66 -54 -97 -68 -52 -25 -67 -27 -177 -26
-117 0 -122 1 -205 38 -157 70 -183 79 -247 80 -58 1 -62 3 -57 21 10 34 59
89 99 112 l39 21 45 -23 c25 -12 84 -36 131 -51 75 -26 99 -29 205 -29 139 1
193 17 298 90 73 50 81 53 72 23z m-2153 -498 c-18 -99 -8 -201 28 -284 11
-27 19 -50 17 -52 -8 -8 -76 70 -93 105 -25 52 -29 130 -10 187 16 46 65 139
71 132 1 -2 -4 -41 -13 -88z m2367 54 c39 -66 64 -155 57 -208 -6 -54 -39
-117 -85 -160 -37 -35 -37 -36 -11 32 39 102 44 229 14 348 -9 34 1 30 25 -12z
m-2050 -548 c53 -27 134 -46 195 -46 76 0 217 30 343 72 l122 41 49 -41 c81
-68 81 -69 10 -75 -35 -3 -128 -25 -208 -50 -194 -59 -228 -67 -304 -67 -124
0 -220 59 -287 175 -37 64 -36 73 2 40 18 -14 53 -37 78 -49z m1800 8 c-48
-80 -119 -140 -187 -160 -91 -27 -188 -15 -382 46 -91 28 -193 54 -228 57
l-63 6 33 34 c18 19 46 44 61 55 l28 20 122 -41 c193 -64 330 -83 439 -60 59
12 157 61 184 90 31 34 27 11 -7 -47z"/>
<path d="M4742 13497 c-22 -7 -44 -25 -63 -54 -81 -117 -199 -412 -199 -495 0
-127 99 -1070 114 -1085 1 -2 42 10 90 27 90 30 258 70 298 70 46 0 47 6 27
160 -38 303 -90 871 -104 1150 -10 203 -7 193 -73 216 -45 16 -64 18 -90 11z"/>
<path d="M14360 13486 l-55 -22 -12 -195 c-23 -376 -94 -1128 -119 -1266 -6
-30 -4 -32 33 -38 123 -22 199 -40 292 -71 57 -19 105 -33 107 -32 9 9 84 711
105 973 l11 150 -42 115 c-84 226 -170 383 -216 394 -12 3 -28 8 -36 11 -7 2
-38 -6 -68 -19z"/>
</g>
</svg>
